<svg width="20.000000" height="20.000000" viewBox="0 0 20 20" fill="none" xmlns="http://www.w3.org/2000/svg" xmlns:xlink="http://www.w3.org/1999/xlink">
	<desc>
			Created with Pixso.
	</desc>
	<defs>
		<clipPath id="clip483_92">
			<rect id="Frame" width="20.000000" height="20.000000" transform="translate(20.000000 20.000000) rotate(-179.999985)" fill="white" fill-opacity="0"/>
		</clipPath>
	</defs>
	<rect id="Frame" width="20.000000" height="20.000000" transform="translate(20.000000 20.000000) rotate(-179.999985)" fill="#FFFFFF" fill-opacity="0"/>
	<g clip-path="url(#clip483_92)">
		<path id="Vector" d="M1.65 9.51C1.27 10.01 1.07 10.61 1.07 11.25C1.07 12.25 1.63 13.2 2.53 13.73C2.76 13.86 3.02 13.93 3.29 13.93L8.65 13.93L8.51 16.68C8.48 17.34 8.72 17.97 9.17 18.45C9.39 18.69 9.66 18.87 9.96 19C10.26 19.13 10.58 19.2 10.91 19.19C12.07 19.19 13.1 18.41 13.41 17.29L15.32 10.35L15.33 10.35L15.33 0.8L4.79 0.8C4.58 0.8 4.38 0.84 4.2 0.92C3.13 1.37 2.45 2.41 2.45 3.56C2.45 3.84 2.49 4.12 2.57 4.39C2.19 4.88 1.99 5.49 1.99 6.12C1.99 6.4 2.03 6.68 2.11 6.95C1.73 7.44 1.52 8.05 1.52 8.68C1.53 8.96 1.57 9.24 1.65 9.51ZM18.92 9.64L18.92 1.51C18.92 1.12 18.6 0.8 18.21 0.8L16.76 0.8L16.76 10.35L18.21 10.35C18.6 10.35 18.92 10.03 18.92 9.64Z" fill="#F76659" fill-opacity="1.000000" fill-rule="nonzero"/>
	</g>
</svg>
