<svg width="20.000000" height="20.000000" viewBox="0 0 20 20" fill="none" xmlns="http://www.w3.org/2000/svg" xmlns:xlink="http://www.w3.org/1999/xlink">
	<desc>
			Created with Pixso.
	</desc>
	<defs>
		<clipPath id="clip483_56">
			<rect id="Frame" width="20.000000" height="20.000000" fill="white" fill-opacity="0"/>
		</clipPath>
	</defs>
	<rect id="Frame" width="20.000000" height="20.000000" fill="#FFFFFF" fill-opacity="0"/>
	<g clip-path="url(#clip483_56)">
		<path id="Vector" d="M18.34 10.48C18.72 9.98 18.92 9.38 18.92 8.74C18.92 7.74 18.36 6.79 17.46 6.26C17.23 6.13 16.97 6.06 16.7 6.06L11.34 6.06L11.48 3.31C11.51 2.65 11.27 2.02 10.82 1.54C10.6 1.3 10.33 1.12 10.03 0.99C9.73 0.86 9.41 0.79 9.08 0.8C7.92 0.8 6.89 1.58 6.58 2.7L4.67 9.64L4.66 9.64L4.66 19.19L15.2 19.19C15.41 19.19 15.61 19.15 15.79 19.07C16.86 18.62 17.54 17.58 17.54 16.43C17.54 16.15 17.5 15.87 17.42 15.6C17.8 15.11 18 14.5 18 13.87C18 13.59 17.96 13.31 17.88 13.04C18.26 12.55 18.47 11.94 18.47 11.31C18.46 11.03 18.42 10.75 18.34 10.48ZM1.07 10.35L1.07 18.48C1.07 18.87 1.39 19.19 1.78 19.19L3.23 19.19L3.23 9.64L1.78 9.64C1.39 9.64 1.07 9.96 1.07 10.35Z" fill="#38D9B9" fill-opacity="1.000000" fill-rule="nonzero"/>
	</g>
</svg>
