<svg width="72.000000" height="80.000000" viewBox="0 0 72 80" fill="none" xmlns="http://www.w3.org/2000/svg" xmlns:xlink="http://www.w3.org/1999/xlink">
	<desc>
			Created with Pixso.
	</desc>
	<defs>
		<filter id="filter_483_49_dd" x="0.000000" y="0.000000" width="72.000000" height="80.000000" filterUnits="userSpaceOnUse" color-interpolation-filters="sRGB">
			<feFlood flood-opacity="0" result="BackgroundImageFix"/>
			<feColorMatrix in="SourceAlpha" type="matrix" values="0 0 0 0 0 0 0 0 0 0 0 0 0 0 0 0 0 0 127 0" result="hardAlpha"/>
			<feOffset dx="0" dy="4"/>
			<feGaussianBlur stdDeviation="5.33333"/>
			<feComposite in2="hardAlpha" operator="out" k2="-1" k3="1"/>
			<feColorMatrix type="matrix" values="0 0 0 0 0 0 0 0 0 0 0 0 0 0 0 0 0 0 0.1 0"/>
			<feBlend mode="normal" in2="BackgroundImageFix" result="effect_dropShadow_1"/>
			<feBlend mode="normal" in="SourceGraphic" in2="effect_dropShadow_1" result="shape"/>
			<feColorMatrix in="SourceAlpha" type="matrix" values="0 0 0 0 0 0 0 0 0 0 0 0 0 0 0 0 0 0 127 0" result="hardAlpha"/>
			<feOffset dx="0" dy="-1"/>
			<feGaussianBlur stdDeviation="0"/>
			<feComposite in2="hardAlpha" operator="arithmetic" k2="-1" k3="1"/>
			<feColorMatrix type="matrix" values="0 0 0 0 0.89804 0 0 0 0 0.91373 0 0 0 0 0.92157 0 0 0 1 0"/>
			<feBlend mode="normal" in2="shape" result="effect_innerShadow_2"/>
		</filter>
		<clipPath id="clip483_50">
			<rect id="Dots horizontal" width="24.000000" height="24.000000" transform="translate(24.000000 24.000000)" fill="white" fill-opacity="0"/>
		</clipPath>
	</defs>
	<g filter="url(#filter_483_49_dd)">
		<rect id="Frame 17" width="40.000000" height="48.000000" transform="translate(16.000000 12.000000)" fill="#FFFFFF" fill-opacity="1.000000"/>
		<g clip-path="url(#clip483_50)">
			<path id="Vector" d="M32 36C32 36.53 31.78 37.03 31.41 37.41C31.03 37.78 30.53 38 30 38C29.46 38 28.96 37.78 28.58 37.41C28.21 37.03 28 36.53 28 36C28 35.46 28.21 34.96 28.58 34.58C28.96 34.21 29.46 34 30 34C30.53 34 31.03 34.21 31.41 34.58C31.78 34.96 32 35.46 32 36ZM38 36C38 36.53 37.78 37.03 37.41 37.41C37.03 37.78 36.53 38 36 38C35.46 38 34.96 37.78 34.58 37.41C34.21 37.03 34 36.53 34 36C34 35.46 34.21 34.96 34.58 34.58C34.96 34.21 35.46 34 36 34C36.53 34 37.03 34.21 37.41 34.58C37.78 34.96 38 35.46 38 36ZM42 38C42.53 38 43.03 37.78 43.41 37.41C43.78 37.03 44 36.53 44 36C44 35.46 43.78 34.96 43.41 34.58C43.03 34.21 42.53 34 42 34C41.46 34 40.96 34.21 40.58 34.58C40.21 34.96 40 35.46 40 36C40 36.53 40.21 37.03 40.58 37.41C40.96 37.78 41.46 38 42 38Z" fill="#4094F7" fill-opacity="1.000000" fill-rule="nonzero"/>
		</g>
	</g>
</svg>
